<mxfile host="Electron" agent="Mozilla/5.0 (Windows NT 10.0; Win64; x64) AppleWebKit/537.36 (KHTML, like Gecko) draw.io/24.7.17 Chrome/128.0.6613.36 Electron/32.0.1 Safari/537.36" version="24.7.17">
  <diagram name="Page-1" id="MU40dsSjmfFrNShMqfhn">
    <mxGraphModel dx="500" dy="319" grid="1" gridSize="10" guides="1" tooltips="1" connect="1" arrows="1" fold="1" page="1" pageScale="1" pageWidth="850" pageHeight="1100" math="0" shadow="0">
      <root>
        <mxCell id="0" />
        <mxCell id="1" parent="0" />
        <mxCell id="beVgWmRtZ7cqBD5OG1xg-60" style="edgeStyle=orthogonalEdgeStyle;rounded=1;orthogonalLoop=1;jettySize=auto;html=1;entryX=0.313;entryY=-0.001;entryDx=0;entryDy=0;curved=0;endArrow=block;endFill=1;exitX=1.001;exitY=0.795;exitDx=0;exitDy=0;exitPerimeter=0;entryPerimeter=0;" parent="1" source="beVgWmRtZ7cqBD5OG1xg-99" target="beVgWmRtZ7cqBD5OG1xg-105" edge="1">
          <mxGeometry relative="1" as="geometry">
            <mxPoint x="530" y="360" as="sourcePoint" />
            <mxPoint x="450" y="382.5" as="targetPoint" />
          </mxGeometry>
        </mxCell>
        <mxCell id="beVgWmRtZ7cqBD5OG1xg-83" value="Respond" style="edgeLabel;html=1;align=center;verticalAlign=middle;resizable=0;points=[];" parent="beVgWmRtZ7cqBD5OG1xg-60" vertex="1" connectable="0">
          <mxGeometry x="0.2461" y="-3" relative="1" as="geometry">
            <mxPoint x="17" y="10" as="offset" />
          </mxGeometry>
        </mxCell>
        <mxCell id="beVgWmRtZ7cqBD5OG1xg-59" style="edgeStyle=orthogonalEdgeStyle;rounded=1;orthogonalLoop=1;jettySize=auto;html=1;exitX=0;exitY=0.271;exitDx=0;exitDy=0;entryX=0.539;entryY=1;entryDx=0;entryDy=0;curved=0;endArrow=block;endFill=1;entryPerimeter=0;exitPerimeter=0;" parent="1" source="beVgWmRtZ7cqBD5OG1xg-105" target="beVgWmRtZ7cqBD5OG1xg-99" edge="1">
          <mxGeometry relative="1" as="geometry">
            <mxPoint x="370" y="290" as="sourcePoint" />
            <mxPoint x="490" y="215" as="targetPoint" />
          </mxGeometry>
        </mxCell>
        <mxCell id="beVgWmRtZ7cqBD5OG1xg-82" value="Interact" style="edgeLabel;html=1;align=center;verticalAlign=middle;resizable=0;points=[];" parent="beVgWmRtZ7cqBD5OG1xg-59" vertex="1" connectable="0">
          <mxGeometry x="0.0131" y="2" relative="1" as="geometry">
            <mxPoint x="-4" y="-6" as="offset" />
          </mxGeometry>
        </mxCell>
        <mxCell id="beVgWmRtZ7cqBD5OG1xg-61" style="edgeStyle=orthogonalEdgeStyle;rounded=1;orthogonalLoop=1;jettySize=auto;html=1;exitX=1;exitY=0.5;exitDx=0;exitDy=0;entryX=0.001;entryY=0.756;entryDx=0;entryDy=0;curved=0;endArrow=block;endFill=1;entryPerimeter=0;" parent="1" target="beVgWmRtZ7cqBD5OG1xg-121" edge="1">
          <mxGeometry relative="1" as="geometry">
            <mxPoint x="450" y="475" as="sourcePoint" />
            <mxPoint x="570" y="510" as="targetPoint" />
          </mxGeometry>
        </mxCell>
        <mxCell id="beVgWmRtZ7cqBD5OG1xg-86" value="Update" style="edgeLabel;html=1;align=center;verticalAlign=middle;resizable=0;points=[];" parent="beVgWmRtZ7cqBD5OG1xg-61" vertex="1" connectable="0">
          <mxGeometry x="0.1533" y="2" relative="1" as="geometry">
            <mxPoint x="9" y="-7" as="offset" />
          </mxGeometry>
        </mxCell>
        <mxCell id="beVgWmRtZ7cqBD5OG1xg-67" style="edgeStyle=orthogonalEdgeStyle;rounded=1;orthogonalLoop=1;jettySize=auto;html=1;exitX=0;exitY=0.75;exitDx=0;exitDy=0;entryX=0;entryY=0;entryDx=70;entryDy=60;curved=0;endArrow=block;endFill=1;entryPerimeter=0;" parent="1" target="beVgWmRtZ7cqBD5OG1xg-146" edge="1">
          <mxGeometry relative="1" as="geometry">
            <mxPoint x="290" y="567.5" as="sourcePoint" />
            <mxPoint x="210" y="520" as="targetPoint" />
            <Array as="points">
              <mxPoint x="205" y="568" />
            </Array>
          </mxGeometry>
        </mxCell>
        <mxCell id="beVgWmRtZ7cqBD5OG1xg-81" value="Respond" style="edgeLabel;html=1;align=center;verticalAlign=middle;resizable=0;points=[];" parent="beVgWmRtZ7cqBD5OG1xg-67" vertex="1" connectable="0">
          <mxGeometry x="-0.2398" y="2" relative="1" as="geometry">
            <mxPoint x="-15" y="6" as="offset" />
          </mxGeometry>
        </mxCell>
        <mxCell id="beVgWmRtZ7cqBD5OG1xg-62" style="edgeStyle=orthogonalEdgeStyle;rounded=1;orthogonalLoop=1;jettySize=auto;html=1;exitX=0.66;exitY=1;exitDx=0;exitDy=0;entryX=1;entryY=0.298;entryDx=0;entryDy=0;curved=0;endArrow=block;endFill=1;entryPerimeter=0;exitPerimeter=0;" parent="1" source="beVgWmRtZ7cqBD5OG1xg-121" target="beVgWmRtZ7cqBD5OG1xg-105" edge="1">
          <mxGeometry relative="1" as="geometry">
            <mxPoint x="490" y="780" as="sourcePoint" />
            <mxPoint x="370" y="660" as="targetPoint" />
          </mxGeometry>
        </mxCell>
        <mxCell id="beVgWmRtZ7cqBD5OG1xg-87" value="Respond" style="edgeLabel;html=1;align=center;verticalAlign=middle;resizable=0;points=[];" parent="beVgWmRtZ7cqBD5OG1xg-62" vertex="1" connectable="0">
          <mxGeometry x="-0.2117" relative="1" as="geometry">
            <mxPoint x="13" y="7" as="offset" />
          </mxGeometry>
        </mxCell>
        <mxCell id="beVgWmRtZ7cqBD5OG1xg-64" style="edgeStyle=orthogonalEdgeStyle;rounded=1;orthogonalLoop=1;jettySize=auto;html=1;exitX=0;exitY=0.5;exitDx=0;exitDy=0;exitPerimeter=0;entryX=1;entryY=0.251;entryDx=0;entryDy=0;curved=0;endArrow=block;endFill=1;entryPerimeter=0;" parent="1" source="beVgWmRtZ7cqBD5OG1xg-30" target="beVgWmRtZ7cqBD5OG1xg-99" edge="1">
          <mxGeometry relative="1" as="geometry">
            <mxPoint x="610" y="340" as="targetPoint" />
          </mxGeometry>
        </mxCell>
        <mxCell id="beVgWmRtZ7cqBD5OG1xg-85" value="Respond" style="edgeLabel;html=1;align=center;verticalAlign=middle;resizable=0;points=[];" parent="beVgWmRtZ7cqBD5OG1xg-64" vertex="1" connectable="0">
          <mxGeometry x="-0.6133" y="-1" relative="1" as="geometry">
            <mxPoint x="-11" y="11" as="offset" />
          </mxGeometry>
        </mxCell>
        <mxCell id="beVgWmRtZ7cqBD5OG1xg-30" value="Database" style="shape=cylinder3;whiteSpace=wrap;html=1;boundedLbl=1;backgroundOutline=1;size=15;" parent="1" vertex="1">
          <mxGeometry x="670" y="390" width="80" height="80" as="geometry" />
        </mxCell>
        <mxCell id="beVgWmRtZ7cqBD5OG1xg-48" style="edgeStyle=orthogonalEdgeStyle;rounded=1;orthogonalLoop=1;jettySize=auto;html=1;exitX=1;exitY=0.3333333333333333;exitDx=0;exitDy=0;exitPerimeter=0;entryX=0.427;entryY=1;entryDx=0;entryDy=0;startArrow=block;startFill=1;curved=0;endArrow=block;endFill=1;entryPerimeter=0;" parent="1" source="beVgWmRtZ7cqBD5OG1xg-35" target="beVgWmRtZ7cqBD5OG1xg-146" edge="1">
          <mxGeometry relative="1" as="geometry">
            <mxPoint x="170" y="480" as="targetPoint" />
          </mxGeometry>
        </mxCell>
        <mxCell id="beVgWmRtZ7cqBD5OG1xg-35" value="User" style="shape=umlActor;verticalLabelPosition=bottom;verticalAlign=top;html=1;" parent="1" vertex="1">
          <mxGeometry x="90" y="460" width="30" height="60" as="geometry" />
        </mxCell>
        <mxCell id="beVgWmRtZ7cqBD5OG1xg-65" style="edgeStyle=orthogonalEdgeStyle;rounded=1;orthogonalLoop=1;jettySize=auto;html=1;exitX=0;exitY=0;exitDx=0;exitDy=50;curved=0;endArrow=block;endFill=1;exitPerimeter=0;entryX=0.278;entryY=1.001;entryDx=0;entryDy=0;entryPerimeter=0;" parent="1" source="beVgWmRtZ7cqBD5OG1xg-146" target="beVgWmRtZ7cqBD5OG1xg-105" edge="1">
          <mxGeometry relative="1" as="geometry">
            <mxPoint x="210" y="440" as="sourcePoint" />
            <mxPoint x="270" y="390" as="targetPoint" />
          </mxGeometry>
        </mxCell>
        <mxCell id="beVgWmRtZ7cqBD5OG1xg-79" value="Request" style="edgeLabel;html=1;align=center;verticalAlign=middle;resizable=0;points=[];" parent="beVgWmRtZ7cqBD5OG1xg-65" vertex="1" connectable="0">
          <mxGeometry x="0.1756" relative="1" as="geometry">
            <mxPoint y="-9" as="offset" />
          </mxGeometry>
        </mxCell>
        <mxCell id="beVgWmRtZ7cqBD5OG1xg-63" style="edgeStyle=orthogonalEdgeStyle;rounded=1;orthogonalLoop=1;jettySize=auto;html=1;exitX=0.773;exitY=-0.001;exitDx=0;exitDy=0;entryX=0.5;entryY=0;entryDx=0;entryDy=0;entryPerimeter=0;curved=0;endArrow=block;endFill=1;exitPerimeter=0;" parent="1" source="beVgWmRtZ7cqBD5OG1xg-99" target="beVgWmRtZ7cqBD5OG1xg-30" edge="1">
          <mxGeometry relative="1" as="geometry">
            <mxPoint x="650" y="277.5" as="sourcePoint" />
          </mxGeometry>
        </mxCell>
        <mxCell id="beVgWmRtZ7cqBD5OG1xg-84" value="Retrieve/Update" style="edgeLabel;html=1;align=center;verticalAlign=middle;resizable=0;points=[];" parent="beVgWmRtZ7cqBD5OG1xg-63" vertex="1" connectable="0">
          <mxGeometry x="-0.4119" y="-2" relative="1" as="geometry">
            <mxPoint x="12" y="-11" as="offset" />
          </mxGeometry>
        </mxCell>
        <mxCell id="beVgWmRtZ7cqBD5OG1xg-88" value="processes user actions, interacts with the model, and decides which view to render in response" style="shape=note2;boundedLbl=1;whiteSpace=wrap;html=1;size=18;verticalAlign=top;align=center;spacingTop=-5;" parent="1" vertex="1">
          <mxGeometry x="120" y="680" width="210" height="80" as="geometry" />
        </mxCell>
        <mxCell id="beVgWmRtZ7cqBD5OG1xg-92" value="manages data, logic, and rules of the application" style="shape=note2;boundedLbl=1;whiteSpace=wrap;html=1;size=18;verticalAlign=top;align=center;spacingTop=-5;" parent="1" vertex="1">
          <mxGeometry x="670" y="70" width="160" height="60" as="geometry" />
        </mxCell>
        <mxCell id="beVgWmRtZ7cqBD5OG1xg-93" value="responds to requests for information,&lt;div&gt;as well as to instructions to change state&lt;/div&gt;" style="shape=note2;boundedLbl=1;whiteSpace=wrap;html=1;size=18;verticalAlign=top;align=center;spacingTop=-5;" parent="1" vertex="1">
          <mxGeometry x="240" y="70" width="230" height="60" as="geometry" />
        </mxCell>
        <mxCell id="beVgWmRtZ7cqBD5OG1xg-95" value="responsible for rendering the model&#39;s data" style="shape=note2;boundedLbl=1;whiteSpace=wrap;html=1;size=18;verticalAlign=top;align=center;spacingTop=-5;" parent="1" vertex="1">
          <mxGeometry x="290" y="860" width="180" height="60" as="geometry" />
        </mxCell>
        <mxCell id="beVgWmRtZ7cqBD5OG1xg-99" value="Models" style="verticalAlign=top;align=left;shape=cube;size=10;direction=south;fontStyle=0;html=1;boundedLbl=1;spacingLeft=5;whiteSpace=wrap;" parent="1" vertex="1">
          <mxGeometry x="490" y="70" width="160" height="270" as="geometry" />
        </mxCell>
        <mxCell id="beVgWmRtZ7cqBD5OG1xg-100" value="User Model" style="verticalAlign=top;align=center;shape=cube;size=10;direction=south;html=1;boundedLbl=1;spacingLeft=5;whiteSpace=wrap;" parent="beVgWmRtZ7cqBD5OG1xg-99" vertex="1">
          <mxGeometry width="100" height="40" relative="1" as="geometry">
            <mxPoint x="10" y="50" as="offset" />
          </mxGeometry>
        </mxCell>
        <mxCell id="beVgWmRtZ7cqBD5OG1xg-101" value="Post Model" style="verticalAlign=top;align=center;shape=cube;size=10;direction=south;html=1;boundedLbl=1;spacingLeft=5;whiteSpace=wrap;" parent="beVgWmRtZ7cqBD5OG1xg-99" vertex="1">
          <mxGeometry width="100" height="40" relative="1" as="geometry">
            <mxPoint x="10" y="90" as="offset" />
          </mxGeometry>
        </mxCell>
        <mxCell id="beVgWmRtZ7cqBD5OG1xg-102" value="Clothe Model" style="verticalAlign=top;align=center;shape=cube;size=10;direction=south;html=1;boundedLbl=1;spacingLeft=5;whiteSpace=wrap;" parent="beVgWmRtZ7cqBD5OG1xg-99" vertex="1">
          <mxGeometry width="100" height="40" relative="1" as="geometry">
            <mxPoint x="10" y="130" as="offset" />
          </mxGeometry>
        </mxCell>
        <mxCell id="beVgWmRtZ7cqBD5OG1xg-103" value="Outfit Model" style="verticalAlign=top;align=center;shape=cube;size=10;direction=south;html=1;boundedLbl=1;spacingLeft=5;whiteSpace=wrap;" parent="beVgWmRtZ7cqBD5OG1xg-99" vertex="1">
          <mxGeometry width="100" height="40" relative="1" as="geometry">
            <mxPoint x="10" y="170" as="offset" />
          </mxGeometry>
        </mxCell>
        <mxCell id="beVgWmRtZ7cqBD5OG1xg-104" value="Closet Model" style="verticalAlign=top;align=center;shape=cube;size=10;direction=south;html=1;boundedLbl=1;spacingLeft=5;whiteSpace=wrap;" parent="beVgWmRtZ7cqBD5OG1xg-99" vertex="1">
          <mxGeometry width="100" height="40" relative="1" as="geometry">
            <mxPoint x="10" y="210" as="offset" />
          </mxGeometry>
        </mxCell>
        <mxCell id="beVgWmRtZ7cqBD5OG1xg-105" value="Controllers" style="verticalAlign=top;align=left;shape=cube;size=10;direction=south;fontStyle=0;html=1;boundedLbl=1;spacingLeft=5;whiteSpace=wrap;" parent="1" vertex="1">
          <mxGeometry x="290" y="270" width="170" height="390" as="geometry" />
        </mxCell>
        <mxCell id="beVgWmRtZ7cqBD5OG1xg-106" value="Auth Controller" style="verticalAlign=top;align=center;shape=cube;size=10;direction=south;html=1;boundedLbl=1;spacingLeft=5;whiteSpace=wrap;" parent="beVgWmRtZ7cqBD5OG1xg-105" vertex="1">
          <mxGeometry width="110" height="40" relative="1" as="geometry">
            <mxPoint x="10" y="50" as="offset" />
          </mxGeometry>
        </mxCell>
        <mxCell id="beVgWmRtZ7cqBD5OG1xg-107" value="User Controller" style="verticalAlign=top;align=center;shape=cube;size=10;direction=south;html=1;boundedLbl=1;spacingLeft=5;whiteSpace=wrap;" parent="beVgWmRtZ7cqBD5OG1xg-105" vertex="1">
          <mxGeometry width="110" height="40" relative="1" as="geometry">
            <mxPoint x="10" y="90" as="offset" />
          </mxGeometry>
        </mxCell>
        <mxCell id="beVgWmRtZ7cqBD5OG1xg-108" value="Post Controller" style="verticalAlign=top;align=center;shape=cube;size=10;direction=south;html=1;boundedLbl=1;spacingLeft=5;whiteSpace=wrap;" parent="beVgWmRtZ7cqBD5OG1xg-105" vertex="1">
          <mxGeometry width="110" height="40" relative="1" as="geometry">
            <mxPoint x="10" y="130" as="offset" />
          </mxGeometry>
        </mxCell>
        <mxCell id="beVgWmRtZ7cqBD5OG1xg-109" value="Clothe Controller" style="verticalAlign=top;align=center;shape=cube;size=10;direction=south;html=1;boundedLbl=1;spacingLeft=5;whiteSpace=wrap;" parent="beVgWmRtZ7cqBD5OG1xg-105" vertex="1">
          <mxGeometry width="110" height="40" relative="1" as="geometry">
            <mxPoint x="10" y="170" as="offset" />
          </mxGeometry>
        </mxCell>
        <mxCell id="beVgWmRtZ7cqBD5OG1xg-110" value="Oufit Controller" style="verticalAlign=top;align=center;shape=cube;size=10;direction=south;html=1;boundedLbl=1;spacingLeft=5;whiteSpace=wrap;" parent="beVgWmRtZ7cqBD5OG1xg-105" vertex="1">
          <mxGeometry width="110" height="40" relative="1" as="geometry">
            <mxPoint x="10" y="210" as="offset" />
          </mxGeometry>
        </mxCell>
        <mxCell id="beVgWmRtZ7cqBD5OG1xg-117" value="Closet Controller" style="verticalAlign=top;align=center;shape=cube;size=10;direction=south;html=1;boundedLbl=1;spacingLeft=5;whiteSpace=wrap;" parent="beVgWmRtZ7cqBD5OG1xg-105" vertex="1">
          <mxGeometry width="110" height="40" relative="1" as="geometry">
            <mxPoint x="10" y="250" as="offset" />
          </mxGeometry>
        </mxCell>
        <mxCell id="beVgWmRtZ7cqBD5OG1xg-118" value="Views Controller" style="verticalAlign=top;align=center;shape=cube;size=10;direction=south;html=1;boundedLbl=1;spacingLeft=5;whiteSpace=wrap;" parent="beVgWmRtZ7cqBD5OG1xg-105" vertex="1">
          <mxGeometry width="110" height="40" relative="1" as="geometry">
            <mxPoint x="10" y="290" as="offset" />
          </mxGeometry>
        </mxCell>
        <mxCell id="beVgWmRtZ7cqBD5OG1xg-119" value="Error Controller" style="verticalAlign=top;align=center;shape=cube;size=10;direction=south;html=1;boundedLbl=1;spacingLeft=5;whiteSpace=wrap;" parent="beVgWmRtZ7cqBD5OG1xg-105" vertex="1">
          <mxGeometry width="110" height="40" relative="1" as="geometry">
            <mxPoint x="10" y="330" as="offset" />
          </mxGeometry>
        </mxCell>
        <mxCell id="beVgWmRtZ7cqBD5OG1xg-121" value="Views" style="verticalAlign=top;align=left;shape=cube;size=10;direction=south;fontStyle=0;html=1;boundedLbl=1;spacingLeft=5;whiteSpace=wrap;" parent="1" vertex="1">
          <mxGeometry x="490" y="510" width="330" height="410" as="geometry" />
        </mxCell>
        <mxCell id="beVgWmRtZ7cqBD5OG1xg-122" value="Login/Sign up" style="verticalAlign=top;align=center;shape=cube;size=10;direction=south;html=1;boundedLbl=1;spacingLeft=5;whiteSpace=wrap;" parent="beVgWmRtZ7cqBD5OG1xg-121" vertex="1">
          <mxGeometry width="110" height="40" relative="1" as="geometry">
            <mxPoint x="10" y="50" as="offset" />
          </mxGeometry>
        </mxCell>
        <mxCell id="beVgWmRtZ7cqBD5OG1xg-123" value="Navigation" style="verticalAlign=top;align=center;shape=cube;size=10;direction=south;html=1;boundedLbl=1;spacingLeft=5;whiteSpace=wrap;" parent="beVgWmRtZ7cqBD5OG1xg-121" vertex="1">
          <mxGeometry width="110" height="40" relative="1" as="geometry">
            <mxPoint x="10" y="90" as="offset" />
          </mxGeometry>
        </mxCell>
        <mxCell id="beVgWmRtZ7cqBD5OG1xg-124" value="Profile" style="verticalAlign=top;align=center;shape=cube;size=10;direction=south;html=1;boundedLbl=1;spacingLeft=5;whiteSpace=wrap;" parent="beVgWmRtZ7cqBD5OG1xg-121" vertex="1">
          <mxGeometry width="110" height="40" relative="1" as="geometry">
            <mxPoint x="10" y="150" as="offset" />
          </mxGeometry>
        </mxCell>
        <mxCell id="beVgWmRtZ7cqBD5OG1xg-125" value="Clothe" style="verticalAlign=top;align=center;shape=cube;size=10;direction=south;html=1;boundedLbl=1;spacingLeft=5;whiteSpace=wrap;" parent="beVgWmRtZ7cqBD5OG1xg-121" vertex="1">
          <mxGeometry width="110" height="40" relative="1" as="geometry">
            <mxPoint x="10" y="210" as="offset" />
          </mxGeometry>
        </mxCell>
        <mxCell id="beVgWmRtZ7cqBD5OG1xg-126" value="Oufit" style="verticalAlign=top;align=center;shape=cube;size=10;direction=south;html=1;boundedLbl=1;spacingLeft=5;whiteSpace=wrap;" parent="beVgWmRtZ7cqBD5OG1xg-121" vertex="1">
          <mxGeometry width="110" height="40" relative="1" as="geometry">
            <mxPoint x="10" y="250" as="offset" />
          </mxGeometry>
        </mxCell>
        <mxCell id="beVgWmRtZ7cqBD5OG1xg-127" value="Closet" style="verticalAlign=top;align=center;shape=cube;size=10;direction=south;html=1;boundedLbl=1;spacingLeft=5;whiteSpace=wrap;" parent="beVgWmRtZ7cqBD5OG1xg-121" vertex="1">
          <mxGeometry width="110" height="40" relative="1" as="geometry">
            <mxPoint x="10" y="290" as="offset" />
          </mxGeometry>
        </mxCell>
        <mxCell id="beVgWmRtZ7cqBD5OG1xg-128" value="Feed" style="verticalAlign=top;align=center;shape=cube;size=10;direction=south;html=1;boundedLbl=1;spacingLeft=5;whiteSpace=wrap;" parent="beVgWmRtZ7cqBD5OG1xg-121" vertex="1">
          <mxGeometry width="80" height="40" relative="1" as="geometry">
            <mxPoint x="10" y="350" as="offset" />
          </mxGeometry>
        </mxCell>
        <mxCell id="beVgWmRtZ7cqBD5OG1xg-129" value="Post" style="verticalAlign=top;align=center;shape=cube;size=10;direction=south;html=1;boundedLbl=1;spacingLeft=5;whiteSpace=wrap;" parent="beVgWmRtZ7cqBD5OG1xg-121" vertex="1">
          <mxGeometry width="80" height="40" relative="1" as="geometry">
            <mxPoint x="90" y="350" as="offset" />
          </mxGeometry>
        </mxCell>
        <mxCell id="beVgWmRtZ7cqBD5OG1xg-130" value="Account Settings" style="verticalAlign=top;align=center;shape=cube;size=10;direction=south;html=1;boundedLbl=1;spacingLeft=5;whiteSpace=wrap;" parent="beVgWmRtZ7cqBD5OG1xg-121" vertex="1">
          <mxGeometry width="140" height="40" relative="1" as="geometry">
            <mxPoint x="140" y="30" as="offset" />
          </mxGeometry>
        </mxCell>
        <mxCell id="beVgWmRtZ7cqBD5OG1xg-141" value="Followers/&lt;span style=&quot;background-color: initial;&quot;&gt;Following&lt;/span&gt;" style="verticalAlign=top;align=center;shape=cube;size=10;direction=south;html=1;boundedLbl=1;spacingLeft=5;whiteSpace=wrap;" parent="beVgWmRtZ7cqBD5OG1xg-121" vertex="1">
          <mxGeometry width="140" height="40" relative="1" as="geometry">
            <mxPoint x="140" y="90" as="offset" />
          </mxGeometry>
        </mxCell>
        <mxCell id="beVgWmRtZ7cqBD5OG1xg-142" value="Outfit Design&lt;div&gt;Ubiór Layout&lt;/div&gt;" style="verticalAlign=top;align=center;shape=cube;size=10;direction=south;html=1;boundedLbl=1;spacingLeft=5;whiteSpace=wrap;" parent="beVgWmRtZ7cqBD5OG1xg-121" vertex="1">
          <mxGeometry width="140" height="50" relative="1" as="geometry">
            <mxPoint x="140" y="150" as="offset" />
          </mxGeometry>
        </mxCell>
        <mxCell id="beVgWmRtZ7cqBD5OG1xg-143" value="Application&lt;div&gt;Clothes Gallery&lt;/div&gt;" style="verticalAlign=top;align=center;shape=cube;size=10;direction=south;html=1;boundedLbl=1;spacingLeft=5;whiteSpace=wrap;" parent="beVgWmRtZ7cqBD5OG1xg-121" vertex="1">
          <mxGeometry width="140" height="50" relative="1" as="geometry">
            <mxPoint x="140" y="220" as="offset" />
          </mxGeometry>
        </mxCell>
        <mxCell id="beVgWmRtZ7cqBD5OG1xg-144" value="Privacy Policy" style="verticalAlign=top;align=center;shape=cube;size=10;direction=south;html=1;boundedLbl=1;spacingLeft=5;whiteSpace=wrap;" parent="beVgWmRtZ7cqBD5OG1xg-121" vertex="1">
          <mxGeometry width="140" height="40" relative="1" as="geometry">
            <mxPoint x="140" y="290" as="offset" />
          </mxGeometry>
        </mxCell>
        <mxCell id="beVgWmRtZ7cqBD5OG1xg-145" value="Error" style="verticalAlign=top;align=center;shape=cube;size=10;direction=south;html=1;boundedLbl=1;spacingLeft=5;whiteSpace=wrap;" parent="beVgWmRtZ7cqBD5OG1xg-121" vertex="1">
          <mxGeometry width="80" height="40" relative="1" as="geometry">
            <mxPoint x="200" y="350" as="offset" />
          </mxGeometry>
        </mxCell>
        <mxCell id="beVgWmRtZ7cqBD5OG1xg-146" value="User Interface" style="verticalAlign=top;align=left;shape=cube;size=10;direction=south;fontStyle=0;html=1;boundedLbl=1;spacingLeft=5;whiteSpace=wrap;" parent="1" vertex="1">
          <mxGeometry x="155" y="450" width="110" height="70" as="geometry" />
        </mxCell>
      </root>
    </mxGraphModel>
  </diagram>
</mxfile>
